<svg width="32" height="33" viewBox="0 0 32 33" fill="none" xmlns="http://www.w3.org/2000/svg">
<path fill-rule="evenodd" clip-rule="evenodd" d="M4.8 3.7C3.91634 3.7 3.2 4.41634 3.2 5.3V27.7C3.2 28.5837 3.91634 29.3 4.8 29.3H27.2C28.0837 29.3 28.8 28.5837 28.8 27.7V5.3C28.8 4.41634 28.0837 3.7 27.2 3.7H4.8ZM0 5.3C0 2.64903 2.14903 0.5 4.8 0.5H27.2C29.851 0.5 32 2.64903 32 5.3V27.7C32 30.351 29.851 32.5 27.2 32.5H4.8C2.14903 32.5 0 30.351 0 27.7V5.3ZM16 8.5C16.8837 8.5 17.6 9.21634 17.6 10.1V14.9H22.4C23.2837 14.9 24 15.6163 24 16.5C24 17.3837 23.2837 18.1 22.4 18.1H17.6V22.9C17.6 23.7837 16.8837 24.5 16 24.5C15.1163 24.5 14.4 23.7837 14.4 22.9V18.1H9.6C8.71634 18.1 8 17.3837 8 16.5C8 15.6163 8.71634 14.9 9.6 14.9H14.4V10.1C14.4 9.21634 15.1163 8.5 16 8.5Z" fill="#015FFE"/>
</svg>
